<svg xmlns="http://www.w3.org/2000/svg" xmlns:xlink="http://www.w3.org/1999/xlink" width="500" zoomAndPan="magnify" viewBox="0 0 375 374.999991" height="500" preserveAspectRatio="xMidYMid meet" version="1.0"><defs><g/><clipPath id="8f6c19266f"><path d="M 147.320312 165.027344 L 178.820312 165.027344 L 178.820312 194.277344 L 147.320312 194.277344 Z M 147.320312 165.027344 " clip-rule="nonzero"/></clipPath></defs><g clip-path="url(#8f6c19266f)"><path fill="#1a1a1a" d="M 178.804688 165.027344 L 172.75 166.214844 L 174.710938 167.921875 L 164.386719 179.839844 L 159.03125 176.0625 L 158.9375 175.996094 C 158.414062 175.628906 157.6875 175.714844 157.261719 176.214844 L 147.339844 187.9375 L 147.519531 188.117188 L 158.3125 178.933594 L 163.820312 182.816406 C 164.390625 183.21875 165.1875 183.132812 165.652344 182.59375 L 176.792969 169.730469 L 178.488281 171.207031 Z M 172.5 176.679688 L 172.5 194.277344 L 177.09375 194.277344 L 177.09375 171.375 Z M 166.9375 194.277344 L 171.527344 194.277344 L 171.527344 177.800781 L 166.9375 183.105469 Z M 161.371094 182.585938 L 161.371094 194.277344 L 165.964844 194.277344 L 165.964844 184.226562 L 165.105469 185.21875 Z M 155.804688 182.574219 L 155.804688 194.277344 L 160.398438 194.277344 L 160.398438 181.898438 L 158.371094 180.46875 Z M 154.832031 183.375 L 154.832031 194.277344 L 150.242188 194.277344 L 150.242188 187.148438 L 154.832031 183.375 " fill-opacity="1" fill-rule="nonzero"/></g><g fill="#004aad" fill-opacity="1"><g transform="translate(184.766462, 167.40833)"><g><path d="M 6.53125 0 L 6.53125 -67.125 L 20.578125 -67.125 L 20.578125 0 Z M 6.53125 0 "/></g></g></g><g fill="#000000" fill-opacity="1"><g transform="translate(127.859221, 167.40833)"><g><path d="M 53.96875 0 L 48.015625 -17.15625 L 22.4375 -17.15625 L 16.484375 0 L 2.421875 0 L 26.921875 -67.125 L 43.5 -67.125 L 67.890625 0 Z M 35.203125 -56.78125 L 34.921875 -55.734375 C 34.597656 -54.585938 34.210938 -53.285156 33.765625 -51.828125 C 33.328125 -50.367188 30.597656 -42.332031 25.578125 -27.71875 L 44.875 -27.71875 L 38.25 -47.015625 L 36.203125 -53.5 Z M 35.203125 -56.78125 "/></g></g></g><g fill="#000000" fill-opacity="1"><g transform="translate(184.766462, 221.975053)"><g><path d="M 61.734375 -45.875 C 61.734375 -41.550781 60.75 -37.691406 58.78125 -34.296875 C 56.8125 -30.898438 53.992188 -28.269531 50.328125 -26.40625 C 46.660156 -24.550781 42.300781 -23.625 37.25 -23.625 L 20.578125 -23.625 L 20.578125 0 L 6.53125 0 L 6.53125 -67.125 L 36.6875 -67.125 C 44.71875 -67.125 50.898438 -65.269531 55.234375 -61.5625 C 59.566406 -57.863281 61.734375 -52.632812 61.734375 -45.875 Z M 47.59375 -45.640625 C 47.59375 -52.691406 43.429688 -56.21875 35.109375 -56.21875 L 20.578125 -56.21875 L 20.578125 -34.4375 L 35.484375 -34.4375 C 39.359375 -34.4375 42.34375 -35.394531 44.4375 -37.3125 C 46.539062 -39.238281 47.59375 -42.015625 47.59375 -45.640625 Z M 47.59375 -45.640625 "/></g></g></g><g fill="#004aad" fill-opacity="1"><g transform="translate(125.143575, 211.114094)"><g><path d="M 71.796875 -33.875 C 71.796875 -26.882812 70.410156 -20.738281 67.640625 -15.4375 C 64.878906 -10.132812 60.925781 -6.078125 55.78125 -3.265625 C 50.632812 -0.453125 44.632812 0.953125 37.78125 0.953125 C 27.238281 0.953125 18.972656 -2.148438 12.984375 -8.359375 C 6.992188 -14.566406 4 -23.070312 4 -33.875 C 4 -44.632812 6.984375 -53.03125 12.953125 -59.0625 C 18.921875 -65.101562 27.226562 -68.125 37.875 -68.125 C 48.507812 -68.125 56.820312 -65.070312 62.8125 -58.96875 C 68.800781 -52.875 71.796875 -44.507812 71.796875 -33.875 Z M 57.453125 -33.875 C 57.453125 -41.113281 55.734375 -46.785156 52.296875 -50.890625 C 48.867188 -55.003906 44.0625 -57.0625 37.875 -57.0625 C 31.582031 -57.0625 26.722656 -55.019531 23.296875 -50.9375 C 19.867188 -46.863281 18.15625 -41.175781 18.15625 -33.875 C 18.15625 -26.5 19.90625 -20.691406 23.40625 -16.453125 C 26.914062 -12.210938 31.707031 -10.09375 37.78125 -10.09375 C 44.0625 -10.09375 48.910156 -12.15625 52.328125 -16.28125 C 55.742188 -20.414062 57.453125 -26.28125 57.453125 -33.875 Z M 57.453125 -33.875 "/></g></g></g><g fill="#000000" fill-opacity="1"><g transform="translate(212.4119, 224.40167)"><g><path d="M 4.046875 0 L 4.046875 -17.9375 L 0.375 -17.9375 L 0.375 -19.953125 L 9.953125 -19.953125 L 9.953125 -17.9375 L 6.265625 -17.9375 L 6.265625 0 Z M 4.046875 0 "/></g></g></g><g fill="#000000" fill-opacity="1"><g transform="translate(222.305406, 224.40167)"><g><path d="M 5.59375 -19.953125 C 7.164062 -19.953125 8.296875 -19.5625 8.984375 -18.78125 C 9.679688 -18.007812 10.03125 -16.878906 10.03125 -15.390625 L 10.03125 -13.765625 C 10.03125 -12.671875 9.832031 -11.78125 9.4375 -11.09375 C 9.039062 -10.40625 8.414062 -9.929688 7.5625 -9.671875 C 8.46875 -9.398438 9.109375 -8.90625 9.484375 -8.1875 C 9.867188 -7.476562 10.0625 -6.582031 10.0625 -5.5 L 10.0625 -2.390625 C 10.0625 -1.953125 10.082031 -1.53125 10.125 -1.125 C 10.164062 -0.71875 10.28125 -0.34375 10.46875 0 L 8.21875 0 C 8.082031 -0.28125 7.984375 -0.585938 7.921875 -0.921875 C 7.867188 -1.253906 7.84375 -1.753906 7.84375 -2.421875 L 7.84375 -5.5625 C 7.84375 -6.6875 7.585938 -7.460938 7.078125 -7.890625 C 6.578125 -8.316406 5.863281 -8.53125 4.9375 -8.53125 L 3.359375 -8.53125 L 3.359375 0 L 1.140625 0 L 1.140625 -19.953125 Z M 5.015625 -10.546875 C 5.910156 -10.546875 6.601562 -10.726562 7.09375 -11.09375 C 7.59375 -11.46875 7.84375 -12.195312 7.84375 -13.28125 L 7.84375 -15.203125 C 7.84375 -16.109375 7.664062 -16.789062 7.3125 -17.25 C 6.957031 -17.707031 6.363281 -17.9375 5.53125 -17.9375 L 3.359375 -17.9375 L 3.359375 -10.546875 Z M 5.015625 -10.546875 "/></g></g></g><g fill="#000000" fill-opacity="1"><g transform="translate(233.082773, 224.40167)"><g><path d="M 3.390625 -4.015625 L 2.625 0 L 0.5625 0 L 4.390625 -19.953125 L 7.609375 -19.953125 L 11.4375 0 L 9.203125 0 L 8.4375 -4.015625 Z M 3.671875 -5.9375 L 8.125 -5.9375 L 5.875 -17.453125 Z M 3.671875 -5.9375 "/></g></g></g><g fill="#000000" fill-opacity="1"><g transform="translate(244.65847, 224.40167)"><g><path d="M 5.453125 -20.15625 C 6.984375 -20.15625 8.113281 -19.695312 8.84375 -18.78125 C 9.582031 -17.875 9.953125 -16.660156 9.953125 -15.140625 L 9.953125 -13.34375 L 7.84375 -13.34375 L 7.84375 -15.25 C 7.84375 -16.164062 7.65625 -16.875 7.28125 -17.375 C 6.914062 -17.882812 6.320312 -18.140625 5.5 -18.140625 C 4.707031 -18.140625 4.117188 -17.882812 3.734375 -17.375 C 3.359375 -16.875 3.171875 -16.164062 3.171875 -15.25 L 3.171875 -4.703125 C 3.171875 -3.796875 3.359375 -3.085938 3.734375 -2.578125 C 4.117188 -2.078125 4.707031 -1.828125 5.5 -1.828125 C 6.320312 -1.828125 6.914062 -2.078125 7.28125 -2.578125 C 7.65625 -3.085938 7.84375 -3.796875 7.84375 -4.703125 L 7.84375 -7.296875 L 9.953125 -7.296875 L 9.953125 -4.8125 C 9.953125 -3.289062 9.582031 -2.070312 8.84375 -1.15625 C 8.113281 -0.25 6.984375 0.203125 5.453125 0.203125 C 3.929688 0.203125 2.800781 -0.25 2.0625 -1.15625 C 1.332031 -2.070312 0.96875 -3.289062 0.96875 -4.8125 L 0.96875 -15.140625 C 0.96875 -15.898438 1.054688 -16.585938 1.234375 -17.203125 C 1.421875 -17.828125 1.695312 -18.359375 2.0625 -18.796875 C 2.4375 -19.234375 2.90625 -19.566406 3.46875 -19.796875 C 4.03125 -20.035156 4.691406 -20.15625 5.453125 -20.15625 Z M 5.453125 -20.15625 "/></g></g></g><g fill="#000000" fill-opacity="1"><g transform="translate(255.036667, 224.40167)"><g><path d="M 4.53125 -8.671875 L 3.359375 -6.703125 L 3.359375 0 L 1.140625 0 L 1.140625 -19.953125 L 3.359375 -19.953125 L 3.359375 -10.328125 L 8.671875 -19.953125 L 10.921875 -19.953125 L 5.875 -10.859375 L 11.09375 0 L 8.8125 0 Z M 4.53125 -8.671875 "/></g></g></g><g fill="#000000" fill-opacity="1"><g transform="translate(266.241711, 224.40167)"><g><path d="M 8.234375 -11.125 L 8.234375 -9.125 L 3.359375 -9.125 L 3.359375 -2.03125 L 9.359375 -2.03125 L 9.359375 0 L 1.140625 0 L 1.140625 -19.953125 L 9.359375 -19.953125 L 9.359375 -17.9375 L 3.359375 -17.9375 L 3.359375 -11.125 Z M 8.234375 -11.125 "/></g></g></g><g fill="#000000" fill-opacity="1"><g transform="translate(276.049686, 224.40167)"><g><path d="M 5.59375 -19.953125 C 7.164062 -19.953125 8.296875 -19.5625 8.984375 -18.78125 C 9.679688 -18.007812 10.03125 -16.878906 10.03125 -15.390625 L 10.03125 -13.765625 C 10.03125 -12.671875 9.832031 -11.78125 9.4375 -11.09375 C 9.039062 -10.40625 8.414062 -9.929688 7.5625 -9.671875 C 8.46875 -9.398438 9.109375 -8.90625 9.484375 -8.1875 C 9.867188 -7.476562 10.0625 -6.582031 10.0625 -5.5 L 10.0625 -2.390625 C 10.0625 -1.953125 10.082031 -1.53125 10.125 -1.125 C 10.164062 -0.71875 10.28125 -0.34375 10.46875 0 L 8.21875 0 C 8.082031 -0.28125 7.984375 -0.585938 7.921875 -0.921875 C 7.867188 -1.253906 7.84375 -1.753906 7.84375 -2.421875 L 7.84375 -5.5625 C 7.84375 -6.6875 7.585938 -7.460938 7.078125 -7.890625 C 6.578125 -8.316406 5.863281 -8.53125 4.9375 -8.53125 L 3.359375 -8.53125 L 3.359375 0 L 1.140625 0 L 1.140625 -19.953125 Z M 5.015625 -10.546875 C 5.910156 -10.546875 6.601562 -10.726562 7.09375 -11.09375 C 7.59375 -11.46875 7.84375 -12.195312 7.84375 -13.28125 L 7.84375 -15.203125 C 7.84375 -16.109375 7.664062 -16.789062 7.3125 -17.25 C 6.957031 -17.707031 6.363281 -17.9375 5.53125 -17.9375 L 3.359375 -17.9375 L 3.359375 -10.546875 Z M 5.015625 -10.546875 "/></g></g></g></svg>